<svg width="24" height="24" viewBox="0 0 24 24" fill="none" xmlns="http://www.w3.org/2000/svg">
<path d="M12.375 2.25C17.964 2.25 22.5 6.786 22.5 12.375C22.5 17.964 17.964 22.5 12.375 22.5C10.6538 22.5 8.95275 22.0646 7.45425 21.2243L7.1505 21.042L4.08263 21.9431C3.53587 22.1051 2.96888 21.7913 2.817 21.2546C2.7765 21.1028 2.76637 20.9408 2.78662 20.7889L2.817 20.6775L3.71813 17.6096C2.74613 16.0301 2.25 14.2178 2.25 12.375C2.25 6.786 6.786 2.25 12.375 2.25ZM12.375 4.275C7.89975 4.275 4.275 7.89975 4.275 12.375C4.275 13.914 4.71038 15.4125 5.5305 16.7085C5.733 17.0224 5.814 17.4173 5.75325 17.802L5.71275 17.964L5.26725 19.4828L6.786 19.0373C7.22138 18.9056 7.677 18.9866 8.0415 19.2195C11.8181 21.609 16.83 20.4851 19.2195 16.7085C21.609 12.9319 20.4851 7.92 16.7085 5.5305C15.4125 4.71038 13.914 4.275 12.375 4.275Z" fill="black"/>
<path fill-rule="evenodd" clip-rule="evenodd" d="M15.5948 7.55557L15.7264 7.57582C16.0808 7.62645 16.5465 7.6872 16.8098 7.95045C17.0224 8.16307 17.1135 8.51745 17.154 8.83132L17.1844 9.03382C17.2452 9.5097 17.2654 10.1273 17.154 10.8158C16.9313 12.1827 16.2124 13.8027 14.3899 15.0683C14.3899 15.1696 14.3798 15.2607 14.3899 15.3619V15.5138C14.4 15.7467 14.4102 15.9694 14.3494 16.1922C14.2482 16.5364 13.8938 16.7592 13.5698 16.9212L13.4078 17.0022L13.1952 17.0933C12.8003 17.2553 12.2738 17.4274 11.9498 17.0933C11.7473 16.8908 11.6663 16.6073 11.6055 16.3137L11.5853 16.2023C11.5549 16.0707 11.5245 15.9289 11.484 15.7973C11.4537 15.7163 11.4334 15.6454 11.403 15.5644C11.3727 15.6049 11.3322 15.6454 11.3018 15.6859C11.1195 15.8682 10.8563 15.9897 10.6335 16.0808C10.3905 16.1719 10.1172 16.2631 9.86404 16.3238L9.73241 16.3542L9.47929 16.4149L9.25654 16.4656L8.98316 16.5263L8.81104 16.5567C8.52754 16.6073 8.25416 16.4251 8.19341 16.1314C8.18329 16.0707 8.18329 15.9998 8.19341 15.9391L8.23391 15.7163L8.31491 15.3518L8.37566 15.0886L8.42629 14.8962C8.49716 14.6431 8.57816 14.3697 8.67941 14.1267C8.77054 13.9039 8.89204 13.6407 9.07429 13.4584L9.11479 13.4179H9.08441C8.99329 13.3673 8.90216 13.3369 8.81104 13.3167L8.66929 13.2762C8.30479 13.1648 7.92004 13.0534 7.67704 12.8104C7.38341 12.5168 7.48466 12.0713 7.62641 11.7068L7.68716 11.5651L7.77829 11.3524L7.85929 11.1904C8.02129 10.8563 8.24404 10.5121 8.58829 10.4108C8.77054 10.3602 8.96291 10.3602 9.15529 10.3602H9.26666C9.41854 10.3602 9.56029 10.3703 9.71216 10.3602C10.9677 8.5377 12.5978 7.8087 13.9647 7.59607C14.5114 7.50495 15.0683 7.49482 15.615 7.54545M10.4715 14.1672C10.2994 14.0457 10.0767 14.0356 9.89441 14.1368L9.83366 14.1773L9.78304 14.2178L9.72229 14.2988C9.59066 14.4912 9.50966 14.7646 9.44891 15.0177L9.38816 15.2607L9.35779 15.3721L9.45904 15.3518L9.68179 15.3012C9.98554 15.2303 10.3197 15.1392 10.5222 14.9569C10.7044 14.7747 10.7247 14.4811 10.5728 14.2684L10.5323 14.2178H10.5222L10.4715 14.1672ZM14.2178 10.5323C13.8128 10.1273 13.1547 10.1273 12.7395 10.5323C12.3345 10.9373 12.3345 11.5954 12.7395 12.0106C13.1445 12.4257 13.8027 12.4156 14.2178 12.0106C14.6228 11.6056 14.6228 10.9474 14.2178 10.5323Z" fill="black"/>
</svg>
